<svg width="132" height="47" viewBox="0 0 132 47" fill="none" xmlns="http://www.w3.org/2000/svg">
<path d="M12.6402 17.0592C9.2667 20.8713 7.17542 25.784 6.95333 30.876C3.66468 28.3118 1.97281 24.5524 2.69848 20.414C4.09599 12.4336 11.6047 8.04855 15.9289 1.78668C16.3262 1.2117 16.6733 0.593415 17.0437 0C19.7442 4.90533 21.2968 10.6262 21.437 16.22C21.5402 20.3625 20.7856 24.6381 17.822 27.7512C15.5233 30.1667 12.3944 31.482 9.13356 31.9341C9.06539 33.5569 9.31001 35.2178 9.70855 36.7908C9.79106 37.115 10.2092 38.0078 9.99443 38.2392C9.46393 38.8131 9.19531 37.5899 9.10138 37.2792C7.5087 32.0052 8.64227 25.5051 10.8389 20.5667L12.6402 17.0592Z" fill="#192B07"/>
<path d="M31.2054 30.0602C31.2075 30.0687 31.2075 30.0758 31.2063 30.0842C31.5677 34.4845 30.0122 38.8283 26.6995 42.2141C23.8123 45.1666 20.3139 46.6469 16.7929 46.943C9.65789 47.5478 2.42984 43.2939 0 36.5741C4.41607 39.7708 7.66961 40.0567 9.82498 39.7275C15.6037 38.8459 17.9625 32.864 23.3758 33.5722C25.6271 33.8662 27.0919 35.1464 28.8054 34.2762C30.3569 33.4876 30.9473 31.5283 31.2054 30.0602Z" fill="#1F7373"/>
<path d="M42.152 21.5719H49.8044V24.8907H42.152V21.5719ZM37.9033 29.763H50.9707V33.2603H37.9074L37.9033 29.763ZM37.9074 13.5307H50.9707V17.028H37.9033L37.9074 13.5307Z" fill="white"/>
<path d="M96.5544 21.5719H104.206V24.8907H96.5544V21.5719ZM92.3057 29.763H105.373V33.2603H92.3098L92.3057 29.763ZM92.3098 13.5307H105.373V17.028H92.3057L92.3098 13.5307Z" fill="white"/>
<path d="M71.1773 33.2603H67.1422L60.7741 23.7539C59.9967 22.5586 58.981 20.8544 58.502 20.0773L58.3235 20.1668C58.4432 20.6151 58.4722 22.1396 58.4722 23.7241L58.502 33.2603H54.4072V13.5304H58.1737L64.8402 23.5157C65.8559 25.0402 66.753 26.6537 67.0822 27.2515L67.2607 27.1617C67.1721 26.6238 67.0822 25.1289 67.0822 23.4847L67.0524 13.5304H71.1773V33.2603Z" fill="white"/>
<path d="M79.6047 17.0283H73.5957V13.531H89.8581V17.0283H83.8494V33.2597H79.6047V17.0283Z" fill="white"/>
<path d="M113.052 23.5151H114.935C117.477 23.5151 119.211 22.3496 119.211 20.2262C119.211 18.0152 117.776 16.8787 115.264 16.8787H113.052H108.808V13.5309H115.504C120.646 13.5309 123.396 15.5634 123.396 20.1975C123.396 22.9474 121.931 24.8003 119.419 25.7571C121.542 26.7441 121.602 30.0617 124.083 30.0617C124.411 30.0617 124.681 30.0017 124.681 30.0017L124.95 33.2596C124.95 33.2596 124.173 33.4691 122.768 33.4691C116.759 33.4691 118.403 26.5044 113.949 26.5044H113.052V33.2596H108.808V23.5151H113.052Z" fill="white"/>
<path d="M127.52 13.5306H131.674V33.2602H127.52V13.5306Z" fill="white"/>
</svg>
