<svg width="171" height="61" viewBox="0 0 171 61" fill="none" xmlns="http://www.w3.org/2000/svg">
<path d="M16.3276 22.0346C11.9701 26.9586 9.2689 33.3041 8.98204 39.8812C4.73423 36.5692 2.54891 31.7133 3.48623 26.3679C5.29133 16.06 14.99 10.396 20.5754 2.30778C21.0886 1.5651 21.5369 0.766488 22.0154 0C25.5035 6.336 27.5089 13.7254 27.69 20.9507C27.8234 26.3014 26.8486 31.824 23.0207 35.845C20.0515 38.965 16.0101 40.6639 11.7982 41.2479C11.7101 43.344 12.0261 45.4893 12.5408 47.5211C12.6474 47.9399 13.1875 49.093 12.9101 49.392C12.2249 50.1332 11.8779 48.5533 11.7566 48.1519C9.6994 41.3397 11.1636 32.9439 14.0009 26.5652L16.3276 22.0346Z" fill="white"/>
<path d="M40.3068 38.8274C40.3094 38.8384 40.3094 38.8474 40.3079 38.8584C40.7747 44.542 38.7655 50.1528 34.4867 54.526C30.7574 58.3396 26.2386 60.2516 21.6907 60.6341C12.4747 61.4154 3.13852 55.9207 0 47.241C5.70406 51.3701 9.90652 51.7394 12.6905 51.3142C20.1547 50.1754 23.2014 42.4489 30.1935 43.3636C33.1015 43.7434 34.9935 45.397 37.2068 44.2729C39.2107 43.2544 39.9734 40.7236 40.3068 38.8274Z" fill="white"/>
<path d="M54.4469 27.8633H64.3311V32.1501H54.4469V27.8633ZM48.959 38.4434H65.8376V42.9606H48.9643L48.959 38.4434ZM48.9643 17.4768H65.8376V21.9941H48.959L48.9643 17.4768Z" fill="white"/>
<path d="M124.714 27.8633H134.598V32.1501H124.714V27.8633ZM119.227 38.4434H136.105V42.9606H119.232L119.227 38.4434ZM119.232 17.4768H136.105V21.9941H119.227L119.232 17.4768Z" fill="white"/>
<path d="M91.9366 42.9608H86.7246L78.4993 30.6818C77.495 29.1379 76.1832 26.9367 75.5645 25.9329L75.3339 26.0485C75.4885 26.6276 75.5259 28.5967 75.5259 30.6433L75.5645 42.9608H70.2754V17.4766H75.1404L83.7513 30.3742C85.0632 32.3433 86.222 34.4274 86.6472 35.1995L86.8777 35.0835C86.7632 34.3888 86.6472 32.4579 86.6472 30.3341L86.6086 17.4766H91.9366V42.9608Z" fill="white"/>
<path d="M102.824 21.9946H95.0625V17.4773H116.068V21.9946H108.307V42.96H102.824V21.9946Z" fill="white"/>
<path d="M146.026 30.3734H148.458C151.741 30.3734 153.98 28.868 153.98 26.1252C153.98 23.2694 152.127 21.8014 148.883 21.8014H146.026H140.543V17.4773H149.192C155.834 17.4773 159.386 20.1025 159.386 26.0882C159.386 29.6402 157.494 32.0334 154.25 33.2693C156.991 34.5441 157.069 38.8294 160.274 38.8294C160.698 38.8294 161.046 38.7519 161.046 38.7519L161.394 42.96C161.394 42.96 160.39 43.2306 158.575 43.2306C150.814 43.2306 152.938 34.2346 147.184 34.2346H146.026V42.96H140.543V30.3734H146.026Z" fill="white"/>
<path d="M164.711 17.4768H170.077V42.9606H164.711V17.4768Z" fill="white"/>
</svg>
